<svg class="animated" id="freepik_stories-curiosity-brain" xmlns="http://www.w3.org/2000/svg" viewBox="0 0 500 500" version="1.1" xmlns:xlink="http://www.w3.org/1999/xlink" xmlns:svgjs="http://svgjs.com/svgjs"><style>svg#freepik_stories-curiosity-brain:not(.animated) .animable {opacity: 0;}svg#freepik_stories-curiosity-brain.animated #freepik--Symbols--inject-19 {animation: 3s Infinite  linear floating;animation-delay: 0s;}svg#freepik_stories-curiosity-brain.animated #freepik--Brain--inject-19 {animation: 3s Infinite  linear floating;animation-delay: 0s;}svg#freepik_stories-curiosity-brain.animated #freepik--speech-bubble--inject-19 {animation: 3s Infinite  linear floating;animation-delay: 0s;}            @keyframes floating {                0% {                    opacity: 1;                    transform: translateY(0px);                }                50% {                    transform: translateY(-10px);                }                100% {                    opacity: 1;                    transform: translateY(0px);                }            }        </style><g id="freepik--background-simple--inject-19" class="animable" style="transform-origin: 243.194px 265.769px;"><path d="M474.49,209.51c-1.75-18.91-1.94-35.65-10.77-53.56-7.08-14.38-15-28.93-25.77-41.52C405,76,353.31,58.86,299.52,57.11c-88.18-2.86-174,46.21-203.51,119-4.76,11.76-12.59,21.67-21.45,31-.92-.48-1.45-1.79-1.45-4.05,0-20.09-26.08,2.38-30.17,7.85C-9.94,281.74,1.44,398.2,89.57,443.48c36.19,18.59,76.3,27.52,117.92,30.43,37.86,2.64,78.87-2.34,107.43-26,24.74-20.51,33.17-51,53.85-73.54-1.66,2.87-5.83,11.06-5.77,20.74.08,12.07,35,7.22,70.78-46C467.32,299.06,478.48,252.74,474.49,209.51Z" style="fill: rgb(0, 255, 136); transform-origin: 243.194px 265.769px;" id="el0mryn7tufg2" class="animable"></path><g id="elj3epnt8cqfg"><path d="M474.49,209.51c-1.75-18.91-1.94-35.65-10.77-53.56-7.08-14.38-15-28.93-25.77-41.52C405,76,353.31,58.86,299.52,57.11c-88.18-2.86-174,46.21-203.51,119-4.76,11.76-12.59,21.67-21.45,31-.92-.48-1.45-1.79-1.45-4.05,0-20.09-26.08,2.38-30.17,7.85C-9.94,281.74,1.44,398.2,89.57,443.48c36.19,18.59,76.3,27.52,117.92,30.43,37.86,2.64,78.87-2.34,107.43-26,24.74-20.51,33.17-51,53.85-73.54-1.66,2.87-5.83,11.06-5.77,20.74.08,12.07,35,7.22,70.78-46C467.32,299.06,478.48,252.74,474.49,209.51Z" style="fill: rgb(255, 255, 255); opacity: 0.7; transform-origin: 243.194px 265.769px;" class="animable"></path></g></g><g id="freepik--Symbols--inject-19" class="animable" style="transform-origin: 239.574px 236.735px;"><path d="M148.4,47.1a6.39,6.39,0,0,0-2.24,4.32,12.62,12.62,0,0,0-.08,3.39q.19,1.53.54,3.24l-17.75,1.46a46.89,46.89,0,0,1-.67-5.64,28.55,28.55,0,0,1,.29-5.63Q130,38,137.09,33.09t18.78-3.16q11.79,1.72,17.26,8.85t3.79,18.57a38.64,38.64,0,0,1-4.29,13c-.31.57-.64,1.14-1,1.7m-2,2.93a45.32,45.32,0,0,1-5.63,6.29,62.92,62.92,0,0,1-12.46,8.91l-1.67,11.45-17.29-2.52L134.83,84a62.49,62.49,0,0,0,10.8-7.72,44.23,44.23,0,0,0,8.22-9.72A29.5,29.5,0,0,0,158,55.19c.42-2.88.2-5-.66-6.48A5.71,5.71,0,0,0,153,46.1M128.4,123.88l2.65-18.1,18.58,2.71L147,126.6Z" style="fill: none; stroke: rgb(38, 50, 56); stroke-linecap: round; stroke-linejoin: round; transform-origin: 152.741px 78.0351px;" id="elhjg0llvghzd" class="animable"></path><path d="M449,247.19a26.06,26.06,0,0,0,2.21-7.89q.47-3.86-.75-5.75a5,5,0,0,0-3.92-2.2,5.16,5.16,0,0,0-4.08,1,5.6,5.6,0,0,0-1.89,3.9,11.25,11.25,0,0,0,0,3c.14.9.33,1.85.57,2.87l-15.77,1.74a40.78,40.78,0,0,1-.73-5,25.75,25.75,0,0,1,.11-5q1.08-9.18,7.28-13.69t16.63-3.28q7.91.93,12.71,4.65m3.32,3.37q4.53,6.1,3.38,15.85a34,34,0,0,1-3.49,11.65,38.14,38.14,0,0,1-7.36,9.93,56.75,56.75,0,0,1-10.86,8.25l-1.2,10.23L429.75,279l1.58-13.47a55.11,55.11,0,0,0,9.41-7.14,39.19,39.19,0,0,0,7.08-8.86m-21.21,51.64,1.9-16.18,16.6,1.95-1.9,16.18Z" style="fill: none; stroke: rgb(38, 50, 56); stroke-linecap: round; stroke-linejoin: round; transform-origin: 446.435px 259.873px;" id="elwflixmxi72" class="animable"></path><path d="M21.2,274.56a31.6,31.6,0,0,1,9.31-2.66q10.86-1.51,17.51,3.36t8.12,15.41a35.39,35.39,0,0,1-.44,12.55A38.23,38.23,0,0,1,54,308.93m-1.72,3.79c-.4.79-.84,1.56-1.29,2.33a58.09,58.09,0,0,1-8.7,11.08l1.47,10.53-15.9,2.22L25.88,325a57.22,57.22,0,0,0,7.54-9.6,40.5,40.5,0,0,0,4.75-10.68,27.19,27.19,0,0,0,.75-11.12c-.37-2.65-1.13-4.49-2.26-5.54a5.2,5.2,0,0,0-4.49-1.18A5.39,5.39,0,0,0,28.35,289a5.82,5.82,0,0,0-.86,4.39,11.39,11.39,0,0,0,.8,3c.38.86.81,1.77,1.31,2.72L14.32,305a41.15,41.15,0,0,1-2-4.81,26.15,26.15,0,0,1-1.2-5q-1.32-9.45,3.68-15.57a18,18,0,0,1,4.16-3.69m11.56,86-2.32-16.66,17.08-2.38,2.32,16.65Z" style="fill: none; stroke: rgb(38, 50, 56); stroke-linecap: round; stroke-linejoin: round; transform-origin: 33.6736px 316.736px;" id="elpv1g5wd38" class="animable"></path><path d="M274.27,414.82c.41-.52.8-1.05,1.18-1.58A27.06,27.06,0,0,0,279,406.3a18.17,18.17,0,0,0,.93-7.37,6.17,6.17,0,0,0-1.29-3.78,3.49,3.49,0,0,0-3-1,3.58,3.58,0,0,0-2.62,1.23,3.91,3.91,0,0,0-.74,2.89,7.51,7.51,0,0,0,.42,2c.21.59.47,1.21.77,1.86l-10.41,3.31a26.48,26.48,0,0,1-1.17-3.28,17.09,17.09,0,0,1-.61-3.4q-.51-6.34,3-10.23t10.79-4.47q7.28-.6,11.53,2.91m1.89,2a16.11,16.11,0,0,1,2.92,8.6,23.43,23.43,0,0,1-.77,8.34,26.48,26.48,0,0,1-3.62,7.7,38.47,38.47,0,0,1-6.22,7l.58,7.07-10.68.87-.76-9.3a39.19,39.19,0,0,0,2.93-3M271.71,444l-.91-11.18,11.47-.94.91,11.18Z" style="fill: none; stroke: rgb(38, 50, 56); stroke-linecap: round; stroke-linejoin: round; transform-origin: 276.358px 413.986px;" id="el3q0oraq8y3r" class="animable"></path></g><g id="freepik--Brain--inject-19" class="animable" style="transform-origin: 255.353px 303.164px;"><path d="M393.88,251.24a29.46,29.46,0,0,0-6.94-19A29.58,29.58,0,0,0,363,191.09a29.56,29.56,0,0,0-34.61-26.87c-4.32-12.75-19.48-22.16-37.53-22.16a48.64,48.64,0,0,0-17.23,3.08c-6.92-8.11-18.89-13.48-32.52-13.48A46.26,46.26,0,0,0,216,138.74a29.4,29.4,0,0,0-44.86,18.35,23.74,23.74,0,0,0-39,8.74,22.85,22.85,0,0,0-30.43,27.38A24,24,0,0,0,77.24,233.3,26.46,26.46,0,0,0,101.35,279a26.45,26.45,0,0,0,36.47,38,32.42,32.42,0,0,0,58,7.09,32.42,32.42,0,0,0,56.69-5A32.4,32.4,0,0,0,299.91,321a32.41,32.41,0,0,0,44.44-8.52,23.74,23.74,0,0,0,28.29-32.84A29.59,29.59,0,0,0,393.88,251.24Z" style="fill: rgb(0, 255, 136); stroke: rgb(38, 50, 56); stroke-linecap: round; stroke-linejoin: round; transform-origin: 230.886px 235.337px;" id="elpfe5vjnzhmg" class="animable"></path><path d="M343.33,202.47c1.36,7-.74,6.43-5,7.26s-9.09,2.76-10.45-4.27,2.94-4.17,7.21-5S342,195.44,343.33,202.47Z" style="fill: rgb(38, 50, 56); transform-origin: 335.683px 204.539px;" id="elp5820hhal5i" class="animable"></path><path d="M331.17,214.89s7.21,5.69,18.22,1.51" style="fill: none; stroke: rgb(38, 50, 56); stroke-linecap: round; stroke-linejoin: round; transform-origin: 340.28px 216.412px;" id="el18f2c7sa8tg" class="animable"></path><path d="M321.9,249s9.18-13.52,18.35-8.21" style="fill: none; stroke: rgb(38, 50, 56); stroke-linecap: round; stroke-linejoin: round; stroke-width: 2px; transform-origin: 331.075px 244.277px;" id="elcg845se7hz4" class="animable"></path><path d="M293.15,210.15c1.36,7-1,13.39-5.26,14.22s-8.83-4.2-10.19-11.23,1-13.39,5.26-14.22S291.79,203.12,293.15,210.15Z" style="fill: rgb(38, 50, 56); transform-origin: 285.425px 211.645px;" id="elhs15sezwgj" class="animable"></path><ellipse cx="282.66" cy="207.84" rx="2.77" ry="3.8" style="fill: rgb(255, 255, 255); transform-origin: 282.66px 207.84px;" id="el0v0rdbl1owy" class="animable"></ellipse><path d="M216,138.74s4.32,1.44,8,7.64c0,0,20.85-7.28,32.87,3.1,8.75,7.56,6.82,15.5,6.82,15.5A28.62,28.62,0,0,1,286,164.4c12.13,4.77,11.69,21.66,11.69,21.66" style="fill: none; stroke: rgb(38, 50, 56); stroke-linecap: round; stroke-linejoin: round; transform-origin: 256.846px 162.4px;" id="elg0glfq6rla7" class="animable"></path><path d="M299.91,321a21.74,21.74,0,0,0,6-9.67s14.26-2.48,18.6-16.74c3.12-10.24-1.86-14.26-1.86-14.26s9.92-3.72,7.44-19.23" style="fill: none; stroke: rgb(38, 50, 56); stroke-linecap: round; stroke-linejoin: round; transform-origin: 315.199px 291.05px;" id="el2y8yl1dkk6y" class="animable"></path><path d="M98.49,209.44s-.43-16.45,14.72-19.92" style="fill: none; stroke: rgb(38, 50, 56); stroke-linecap: round; stroke-linejoin: round; transform-origin: 105.849px 199.48px;" id="elapbua0v96j6" class="animable"></path><path d="M124.91,176.1s4.76-12.56,17.75-9.53" style="fill: none; stroke: rgb(38, 50, 56); stroke-linecap: round; stroke-linejoin: round; transform-origin: 133.785px 171.099px;" id="el09ojf69mdxdd" class="animable"></path><path d="M94.59,268.34a19.77,19.77,0,0,0,18.62,14.73" style="fill: none; stroke: rgb(38, 50, 56); stroke-linecap: round; stroke-linejoin: round; transform-origin: 103.9px 275.705px;" id="elfdn13gzaqyt" class="animable"></path><path d="M157.15,311.7a63.55,63.55,0,0,0-3.66-10.88c-6.06-13.42-21.22-15.59-25.12-9.53" style="fill: none; stroke: rgb(38, 50, 56); stroke-linecap: round; stroke-linejoin: round; transform-origin: 142.76px 299.89px;" id="el00ioudk4jrq6" class="animable"></path><path d="M137.82,317a21.88,21.88,0,0,0-19-10.12" style="fill: none; stroke: rgb(38, 50, 56); stroke-linecap: round; stroke-linejoin: round; transform-origin: 128.32px 311.937px;" id="el0pkonxammsp9" class="animable"></path><path d="M207.19,320.31c-15.59,3.47-25.55-2.6-25.55-2.6s-3.9,6.07-14.73,4.77c-5.53-.67-7.33-2.8-8.58-6.52" style="fill: none; stroke: rgb(38, 50, 56); stroke-linecap: round; stroke-linejoin: round; transform-origin: 182.76px 319.311px;" id="elerada8wqm7h" class="animable"></path><path d="M117.54,227.63c3.47,6.5,4.33,13.43-2.59,18.19" style="fill: none; stroke: rgb(38, 50, 56); stroke-linecap: round; stroke-linejoin: round; transform-origin: 117.559px 236.725px;" id="elgbjr994m2in" class="animable"></path><path d="M91.13,208.14s-2.6,6.5,3.89,11.7c4.72,3.77,12.65,2.75,18,4.4" style="fill: none; stroke: rgb(38, 50, 56); stroke-linecap: round; stroke-linejoin: round; transform-origin: 101.818px 216.19px;" id="elobwdnzaaxh8" class="animable"></path><path d="M77.24,233.3s8.69,9.06,21.25,8.62" style="fill: none; stroke: rgb(38, 50, 56); stroke-linecap: round; stroke-linejoin: round; transform-origin: 87.865px 237.618px;" id="el70c0fb28cd" class="animable"></path><path d="M174.55,164.64c8.64.57,20.14.6,26.14-2.4,10.4-5.2,5.63-11.69-3.89-7.8s-12.13,5.2-12.13,5.2" style="fill: none; stroke: rgb(38, 50, 56); stroke-linecap: round; stroke-linejoin: round; transform-origin: 190.553px 159.097px;" id="elbqdhyjvl4pn" class="animable"></path><path d="M163.45,163.54s2.66.38,6.62.75" style="fill: none; stroke: rgb(38, 50, 56); stroke-linecap: round; stroke-linejoin: round; transform-origin: 166.76px 163.915px;" id="eld5x4lb6dlrs" class="animable"></path><path d="M353.14,186.92s9.09,2.17,12.12,13.86" style="fill: none; stroke: rgb(38, 50, 56); stroke-linecap: round; stroke-linejoin: round; transform-origin: 359.2px 193.85px;" id="els2fmjcl3dpl" class="animable"></path><path d="M271.18,309.65q2.26-1.29,4.49-2.86" style="fill: none; stroke: rgb(38, 50, 56); stroke-linecap: round; stroke-linejoin: round; transform-origin: 273.425px 308.22px;" id="elqxsplyj2n5d" class="animable"></path><path d="M239.11,317.17a60.28,60.28,0,0,0,26.14-4.61" style="fill: none; stroke: rgb(38, 50, 56); stroke-linecap: round; stroke-linejoin: round; transform-origin: 252.18px 314.899px;" id="elyau2awi5fr" class="animable"></path><path d="M137.7,269.14a33.93,33.93,0,0,1-11.44,1.08c-11.29-.9-19.42-4.51-24.38-13.09" style="fill: none; stroke: rgb(38, 50, 56); stroke-linecap: round; stroke-linejoin: round; transform-origin: 119.79px 263.724px;" id="el6z9idmagbr4" class="animable"></path><path d="M206.57,233.35c2.49-1.32,5.1-2.61,7.82-3.8" style="fill: none; stroke: rgb(38, 50, 56); stroke-linecap: round; stroke-linejoin: round; transform-origin: 210.48px 231.45px;" id="elru90mgpi4gc" class="animable"></path><path d="M180,252.09A130.39,130.39,0,0,1,200.19,237" style="fill: none; stroke: rgb(38, 50, 56); stroke-linecap: round; stroke-linejoin: round; transform-origin: 190.095px 244.545px;" id="el96fvr8qdltj" class="animable"></path><path d="M218.78,209.52c-12.72,0-29.63,10.69-36.43,15.38a7.69,7.69,0,0,1-8.89,0c-3.07-2.27-4.34-6.87,5.87-16" style="fill: none; stroke: rgb(38, 50, 56); stroke-linecap: round; stroke-linejoin: round; transform-origin: 195.019px 217.607px;" id="elngfbjpvsqh" class="animable"></path><path d="M146.12,265.71a28,28,0,0,1-3.78,1.86" style="fill: none; stroke: rgb(38, 50, 56); stroke-linecap: round; stroke-linejoin: round; transform-origin: 144.23px 266.64px;" id="els5mcvj778e" class="animable"></path><path d="M226.47,173.17s-11.74-8.58-1.81-14.45,36.57.45,47,13.54" style="fill: none; stroke: rgb(38, 50, 56); stroke-linecap: round; stroke-linejoin: round; transform-origin: 246.166px 164.844px;" id="elb7y0heq28u5" class="animable"></path><path d="M149.53,435.8s-5.21-11.23.4-19.25,9.63-13.25,16-11.64,8,6.82,4.82,12.44A114.71,114.71,0,0,1,164,427.78s11.18,7.93,10.78,11.54-7.63,8-11.24,7.63S150.33,437.81,149.53,435.8Z" style="fill: rgb(201, 201, 201); stroke: rgb(38, 50, 56); stroke-linecap: round; stroke-linejoin: round; transform-origin: 161.06px 425.795px;" id="el0wdc7ur9ekb" class="animable"></path><path d="M138.6,436.14s-5.21-11.24.41-19.26,9.63-13.24,16-11.64,8,6.82,4.82,12.44a113,113,0,0,1-6.82,10.43s11.18,7.93,10.78,11.54-7.63,8-11.24,7.63S139.41,438.14,138.6,436.14Z" style="fill: rgb(201, 201, 201); stroke: rgb(38, 50, 56); stroke-linecap: round; stroke-linejoin: round; transform-origin: 150.101px 426.127px;" id="el4enr6oidqwy" class="animable"></path><path d="M127.65,441s-3.82-19.2,8.36-30.47c6.13-5.66,10.9-7.24,14.51-2s-3.61,13.64-5.61,19.26,1.2,11.24,2.4,11.64,14.05,2,14.05,2,4.81,24.08-3.61,24.08S128.06,449.36,127.65,441Z" style="fill: rgb(201, 201, 201); stroke: rgb(38, 50, 56); stroke-linecap: round; stroke-linejoin: round; transform-origin: 144.905px 435.422px;" id="ely3kuyz647cd" class="animable"></path><path d="M191.17,329.75a32.28,32.28,0,0,1-14.94,8.32v60.59l-3.46,3.74a132.8,132.8,0,0,0-8.94,16.39c-4.47,9.68-6,27.55-6,27.55l-22.35-7.44s-3.72-14.16-4.46-20.11-11.18-12.67-16.39-3,2.23,26.81,14.15,39.47,26.07,18.62,41,19.37S209.23,465.88,213,451s-21.53-52.46-21.53-52.46Z" style="fill: rgb(201, 201, 201); stroke: rgb(38, 50, 56); stroke-linecap: round; stroke-linejoin: round; transform-origin: 163.162px 402.211px;" id="elhqr8lq8tc1" class="animable"></path><path d="M176.23,338.07v11.28a59,59,0,0,0,15-4.86l-.06-14.74A32.28,32.28,0,0,1,176.23,338.07Z" style="fill: rgb(38, 50, 56); stroke: rgb(38, 50, 56); stroke-linecap: round; stroke-linejoin: round; transform-origin: 183.73px 339.55px;" id="elct0snntw56" class="animable"></path><path d="M374.81,287.92c.05.59.08,1.19.08,1.8a23.75,23.75,0,0,1-13.84,21.58c16.1,8.75,40.81,23,42.17,28.81,2,8.63-16.25-2-16.25-2l8.63,24.38s39.11,13.2,46.73-13.72C448.34,327.51,396.83,299,374.81,287.92Z" style="fill: rgb(201, 201, 201); stroke: rgb(38, 50, 56); stroke-linecap: round; stroke-linejoin: round; transform-origin: 401.932px 326.823px;" id="eldafh8bt2b6c" class="animable"></path><path d="M374.89,289.72a23.74,23.74,0,0,1-13.84,21.58c4.49,2.44,9.64,5.3,14.78,8.3-.1-1.77,0-6.73,2.77-14.17a36,36,0,0,1,7.17-11.78c-4.09-2.22-7.82-4.15-11-5.73C374.86,288.51,374.89,289.11,374.89,289.72Z" style="fill: rgb(38, 50, 56); stroke: rgb(38, 50, 56); stroke-linecap: round; stroke-linejoin: round; transform-origin: 373.41px 303.76px;" id="elnxu0fjjpx2" class="animable"></path><path d="M375.06,314.86s-35.25,6.07-44.72,4.93-15.16-2.65-15.54,4.55,5.3,9.85,10.61,11.75,17.43,3.79,20.46,3.41,33.36-.76,35.63-9.86S380,313.73,375.06,314.86Z" style="fill: rgb(201, 201, 201); stroke: rgb(38, 50, 56); stroke-linecap: round; stroke-linejoin: round; transform-origin: 348.479px 327.143px;" id="eld15abss2dq" class="animable"></path><path d="M411.11,360.51s-11.46,13.75-21.2,8.6-9.17-12-9.17-12L369.29,364s7.44,4.58,6.3,10.31-12.61,4.59-18.91,1.15-7.45-8-7.45-8a14,14,0,0,1-6.87-4c-3.44-3.44-2.87-10.32-2.87-10.32s-5.15-5.72-5.73-9.74-.57-16.61,4-20.62,34.38-9.17,34.38-9.17-14.32-6.3-18.91-6.3-18.9,6.87-24.06,7.45S320,309,323.45,300.93,355,283.74,363.72,288.7,383,302.07,383,302.07l28.64,35.53A31,31,0,0,0,430.14,335" style="fill: rgb(201, 201, 201); stroke: rgb(38, 50, 56); stroke-linecap: round; stroke-linejoin: round; transform-origin: 376.15px 332.808px;" id="el3q9x9bmqeuz" class="animable"></path><path d="M339.49,353.06S343.8,334,346.34,332s31-8.12,31-8.12" style="fill: none; stroke: rgb(38, 50, 56); stroke-linecap: round; stroke-linejoin: round; transform-origin: 358.415px 338.47px;" id="elvpcxacrlsz9" class="animable"></path><path d="M349.23,367.39s3.2-19.15,6.76-21.69,24.88-7.62,24.88-7.62" style="fill: none; stroke: rgb(38, 50, 56); stroke-linecap: round; stroke-linejoin: round; transform-origin: 365.05px 352.735px;" id="elexthnqoox3r" class="animable"></path><path d="M142.54,231.51s12.25-18.67,15.28-22.56,11.22-6.47,19-8.2,21.6-3,21.6-3,23.31.43,26.34,1.72a38.58,38.58,0,0,1,6.47,3.89s6.48-9.93,16.41-9.93,48.8.86,49.66,4.75,5.18,28.93,5.18,28.93,0-28.93,2.16-29.36,6.05-3,8.21,1.29,5.61,18.14,5.61,18.14,3-23.32,12.95-24.62,30.74-7.95,30.74-7.95l-.94-3.7-39,12.32s-8.51-2.39-15-2.39-13,.43-13,.43-41.46-6.05-51.39-4.75a67.69,67.69,0,0,0-18.13,5.18s-55.71,4.75-58.3,5.18-15.54,3.46-18.13,7.78S142.54,231.51,142.54,231.51Z" style="fill: rgb(38, 50, 56); stroke: rgb(38, 50, 56); stroke-linecap: round; stroke-linejoin: round; transform-origin: 252.345px 206.21px;" id="el2l5b9xw0f6k" class="animable"></path><path d="M234.21,183.49s-70.28,11.35-78.57,11.35-22.26,26.63-24,31.86,6.55,5.68,10.91,4.81,11.79-27.94,17.47-29.69,68.15-4.25,68.15-4.25Z" style="fill: rgb(255, 255, 255); stroke: rgb(38, 50, 56); stroke-linecap: round; stroke-linejoin: round; transform-origin: 182.807px 207.675px;" id="elc9l5ini0smg" class="animable"></path><path d="M364.34,175.57A132.74,132.74,0,0,0,331.86,182s-7.58,1.9-12.45,4.65c-6.42,1.61-14.77,1.61-17.36,1.56-6.19-2.48-16.07-3.64-16.07-3.64s-22.6-4.68-44-3.75-20.82,8.1-20,9.25c1.17,1.56,6.15,7.5,6.15,7.5s1.61,37.16,13.39,43.2,55.14-.93,64.24-3.72c8.2-2.51,3.87-30.52,1.69-41.94a15.52,15.52,0,0,1,7.88-1.15c-.1,10.84.51,37.07,7.78,38.58,8.08,1.69,45.64,3.86,54.64-2.89s4.72-41.31,4.72-41.31l3.43-4.34C389.35,179.65,382.5,174.32,364.34,175.57Zm-65,54.52c-5.35,2.32-47.11,6.5-53.53.92s-10.71-34.37-9.1-38.08,4.82-1.4,14.45-1.86,48.18,4.18,48.18,4.18S304.72,227.76,299.36,230.09ZM372.7,221c-4.56,5.8-40.35,6-45.21,4.42s-5.28-32.25-5.28-32.25,31.75-8.1,39.93-8.62,10.53-3,12.45.3S377.26,215.25,372.7,221Z" style="fill: rgb(255, 255, 255); stroke: rgb(38, 50, 56); stroke-linecap: round; stroke-linejoin: round; transform-origin: 304.225px 209.273px;" id="elivb6birwcxo" class="animable"></path><path d="M236.2,171.59s12.6-18,41.06-21.47a30,30,0,0,1,16.59,2.75l9.95,4.76-9.55,16.16s-.74-6.61-20.58-7.34-30.86,12.49-34.53,11S231.79,175.26,236.2,171.59Z" style="fill: rgb(38, 50, 56); transform-origin: 268.993px 163.736px;" id="elsz48s20c3a" class="animable"></path><path d="M319.78,167s22.8,7.35,33.1-5.89,11-19.12,14-14.71,0,24.28-14,33.84-32.36,3.68-32.36,3.68Z" style="fill: rgb(38, 50, 56); transform-origin: 343.859px 165.331px;" id="elt98xhc099a" class="animable"></path></g><g id="freepik--speech-bubble--inject-19" class="animable" style="transform-origin: 386.29px 74.855px;"><g id="el0eictyds55b"><rect x="360.12" y="33.29" width="83.83" height="96.28" rx="7.03" style="fill: rgb(38, 50, 56); stroke: rgb(38, 50, 56); stroke-linecap: round; stroke-linejoin: round; transform-origin: 402.035px 81.43px; transform: rotate(180deg);" class="animable"></rect></g><g id="elahpuu98oq7"><rect x="341.72" y="107.6" width="15.77" height="21.58" rx="2.64" style="fill: rgb(38, 50, 56); stroke: rgb(38, 50, 56); stroke-linecap: round; stroke-linejoin: round; transform-origin: 349.605px 118.39px; transform: rotate(180deg);" class="animable"></rect></g><g id="elmjtn8vuc5is"><rect x="328.63" y="121.25" width="10.73" height="14.68" rx="2.64" style="fill: rgb(38, 50, 56); stroke: rgb(38, 50, 56); stroke-linecap: round; stroke-linejoin: round; transform-origin: 333.995px 128.59px; transform: rotate(180deg);" class="animable"></rect></g><path d="M389.6,95.63V78.26a71.32,71.32,0,0,0,10.9-10.5,50,50,0,0,0,7.67-12.32A33.61,33.61,0,0,0,411,41.91c0-3.31-.6-5.72-1.82-7.2a6.46,6.46,0,0,0-5.31-2.22,6.67,6.67,0,0,0-5.05,1.89A7.24,7.24,0,0,0,397,39.63a14.39,14.39,0,0,0,.47,3.83c.32,1.13.7,2.31,1.15,3.57l-19.79,4.58a53.34,53.34,0,0,1-1.69-6.26,32.88,32.88,0,0,1-.6-6.4q0-11.84,7.2-18.51t20.67-6.66q13.59,0,20.93,7.13t7.34,20.33A43.73,43.73,0,0,1,430,56.59a49.3,49.3,0,0,1-7.87,13.73,72.12,72.12,0,0,1-12.59,12.12V95.63Zm-.68,28.67V103.44h21.41V124.3Z" style="fill: rgb(0, 255, 136); stroke: rgb(38, 50, 56); stroke-linecap: round; stroke-linejoin: round; transform-origin: 404.61px 69.04px;" id="elo15hv9disfg" class="animable"></path></g><defs>     <filter id="active" height="200%">         <feMorphology in="SourceAlpha" result="DILATED" operator="dilate" radius="2"></feMorphology>                <feFlood flood-color="#32DFEC" flood-opacity="1" result="PINK"></feFlood>        <feComposite in="PINK" in2="DILATED" operator="in" result="OUTLINE"></feComposite>        <feMerge>            <feMergeNode in="OUTLINE"></feMergeNode>            <feMergeNode in="SourceGraphic"></feMergeNode>        </feMerge>    </filter>    <filter id="hover" height="200%">        <feMorphology in="SourceAlpha" result="DILATED" operator="dilate" radius="2"></feMorphology>                <feFlood flood-color="#ff0000" flood-opacity="0.5" result="PINK"></feFlood>        <feComposite in="PINK" in2="DILATED" operator="in" result="OUTLINE"></feComposite>        <feMerge>            <feMergeNode in="OUTLINE"></feMergeNode>            <feMergeNode in="SourceGraphic"></feMergeNode>        </feMerge>            <feColorMatrix type="matrix" values="0   0   0   0   0                0   1   0   0   0                0   0   0   0   0                0   0   0   1   0 "></feColorMatrix>    </filter></defs></svg>